<?xml version="1.0" encoding="UTF-8" standalone="no"?><svg xmlns="http://www.w3.org/2000/svg" xmlns:xlink="http://www.w3.org/1999/xlink" contentScriptType="application/ecmascript" contentStyleType="text/css" height="330px" preserveAspectRatio="none" style="width:781px;height:330px;" version="1.1" viewBox="0 0 781 330" width="781px" zoomAndPan="magnify"><defs><filter height="300%" id="f13cetqh7y6pp5" width="300%" x="-1" y="-1"><feGaussianBlur result="blurOut" stdDeviation="2.0"/><feColorMatrix in="blurOut" result="blurOut2" type="matrix" values="0 0 0 0 0 0 0 0 0 0 0 0 0 0 0 0 0 0 .4 0"/><feOffset dx="4.0" dy="4.0" in="blurOut2" result="blurOut3"/><feBlend in="SourceGraphic" in2="blurOut3" mode="normal"/></filter></defs><g><!--MD5=[7fb7c12d2691bca2ed06b43fb7c0b3a8]
class Items--><rect codeLine="1" fill="#FEFECE" filter="url(#f13cetqh7y6pp5)" height="60.8047" id="Items" style="stroke:#A80036;stroke-width:1.5;" width="97" x="353.5" y="39"/><ellipse cx="382.9" cy="55" fill="#ADD1B2" rx="11" ry="11" style="stroke:#A80036;stroke-width:1.0;"/><path d="M385.2438,50.6719 C384.3063,50.2344 383.7125,50.0938 382.8375,50.0938 C380.2125,50.0938 378.2125,52.1719 378.2125,54.8906 L378.2125,56.0156 C378.2125,58.5938 380.3219,60.4844 383.2125,60.4844 C384.4313,60.4844 385.5875,60.1875 386.3375,59.6406 C386.9156,59.2344 387.2438,58.7813 387.2438,58.3906 C387.2438,57.9375 386.8531,57.5469 386.3844,57.5469 C386.1656,57.5469 385.9625,57.625 385.775,57.8125 C385.3219,58.2969 385.3219,58.2969 385.1344,58.3906 C384.7125,58.6563 384.025,58.7813 383.2594,58.7813 C381.2125,58.7813 379.9156,57.6875 379.9156,55.9844 L379.9156,54.8906 C379.9156,53.1094 381.1656,51.7969 382.9,51.7969 C383.4781,51.7969 384.0875,51.9531 384.5563,52.2031 C385.0406,52.4844 385.2125,52.7031 385.3063,53.1094 C385.3688,53.5156 385.4,53.6406 385.5406,53.7656 C385.6813,53.9063 385.9156,54.0156 386.1344,54.0156 C386.4,54.0156 386.6656,53.875 386.8375,53.6563 C386.9469,53.5 386.9781,53.3125 386.9781,52.8906 L386.9781,51.4688 C386.9781,51.0313 386.9625,50.9063 386.8688,50.75 C386.7125,50.4844 386.4313,50.3438 386.1344,50.3438 C385.8375,50.3438 385.6344,50.4375 385.4156,50.75 L385.2438,50.6719 Z " fill="#000000"/><text fill="#000000" font-family="sans-serif" font-size="12" lengthAdjust="spacing" textLength="33" x="400.1" y="59.1543">Items</text><line style="stroke:#A80036;stroke-width:1.5;" x1="354.5" x2="449.5" y1="71" y2="71"/><ellipse cx="364.5" cy="82" rx="3" ry="3" style="stroke:#038048;stroke-width:1.0;fill:none;"/><text fill="#000000" font-family="sans-serif" font-size="11" lengthAdjust="spacing" textLength="71" x="373.5" y="85.2104">item : item[]</text><line style="stroke:#A80036;stroke-width:1.5;" x1="354.5" x2="449.5" y1="91.8047" y2="91.8047"/><!--MD5=[ab11aec9697a155806c72fa29b42d191]
class item--><rect codeLine="5" fill="#FEFECE" filter="url(#f13cetqh7y6pp5)" height="124.8281" id="item" style="stroke:#A80036;stroke-width:1.5;" width="169" x="317.5" y="192"/><ellipse cx="384.75" cy="208" fill="#ADD1B2" rx="11" ry="11" style="stroke:#A80036;stroke-width:1.0;"/><path d="M387.0938,203.6719 C386.1563,203.2344 385.5625,203.0938 384.6875,203.0938 C382.0625,203.0938 380.0625,205.1719 380.0625,207.8906 L380.0625,209.0156 C380.0625,211.5938 382.1719,213.4844 385.0625,213.4844 C386.2813,213.4844 387.4375,213.1875 388.1875,212.6406 C388.7656,212.2344 389.0938,211.7813 389.0938,211.3906 C389.0938,210.9375 388.7031,210.5469 388.2344,210.5469 C388.0156,210.5469 387.8125,210.625 387.625,210.8125 C387.1719,211.2969 387.1719,211.2969 386.9844,211.3906 C386.5625,211.6563 385.875,211.7813 385.1094,211.7813 C383.0625,211.7813 381.7656,210.6875 381.7656,208.9844 L381.7656,207.8906 C381.7656,206.1094 383.0156,204.7969 384.75,204.7969 C385.3281,204.7969 385.9375,204.9531 386.4063,205.2031 C386.8906,205.4844 387.0625,205.7031 387.1563,206.1094 C387.2188,206.5156 387.25,206.6406 387.3906,206.7656 C387.5313,206.9063 387.7656,207.0156 387.9844,207.0156 C388.25,207.0156 388.5156,206.875 388.6875,206.6563 C388.7969,206.5 388.8281,206.3125 388.8281,205.8906 L388.8281,204.4688 C388.8281,204.0313 388.8125,203.9063 388.7188,203.75 C388.5625,203.4844 388.2813,203.3438 387.9844,203.3438 C387.6875,203.3438 387.4844,203.4375 387.2656,203.75 L387.0938,203.6719 Z " fill="#000000"/><text fill="#000000" font-family="sans-serif" font-size="12" lengthAdjust="spacing" textLength="26" x="405.25" y="212.1543">item</text><line style="stroke:#A80036;stroke-width:1.5;" x1="318.5" x2="485.5" y1="224" y2="224"/><ellipse cx="328.5" cy="235" rx="3" ry="3" style="stroke:#038048;stroke-width:1.0;fill:none;"/><text fill="#000000" font-family="sans-serif" font-size="11" lengthAdjust="spacing" textLength="118" x="337.5" y="238.2104">productName : string</text><ellipse cx="328.5" cy="247.8047" rx="3" ry="3" style="stroke:#038048;stroke-width:1.0;fill:none;"/><text fill="#000000" font-family="sans-serif" font-size="11" lengthAdjust="spacing" textLength="143" x="337.5" y="251.0151">quantity : positiveInteger</text><ellipse cx="328.5" cy="260.6094" rx="3" ry="3" style="stroke:#038048;stroke-width:1.0;fill:none;"/><text fill="#000000" font-family="sans-serif" font-size="11" lengthAdjust="spacing" textLength="99" x="337.5" y="263.8198">USPrice : decimal</text><ellipse cx="328.5" cy="273.4141" rx="3" ry="3" style="stroke:#038048;stroke-width:1.0;fill:none;"/><text fill="#000000" font-family="sans-serif" font-size="11" lengthAdjust="spacing" textLength="96" x="337.5" y="276.6245">comment : string</text><ellipse cx="328.5" cy="286.2188" rx="3" ry="3" style="stroke:#038048;stroke-width:1.0;fill:none;"/><text fill="#000000" font-family="sans-serif" font-size="11" lengthAdjust="spacing" textLength="88" x="337.5" y="289.4292">shipDate : date</text><ellipse cx="328.5" cy="299.0234" rx="3" ry="3" style="stroke:#038048;stroke-width:1.0;fill:none;"/><text fill="#000000" font-family="sans-serif" font-size="11" lengthAdjust="spacing" textLength="90" x="337.5" y="302.2339">partNum : string</text><line style="stroke:#A80036;stroke-width:1.5;" x1="318.5" x2="485.5" y1="308.8281" y2="308.8281"/><!--MD5=[7695e888613c210df5bd1ba002c7741b]
class PurchaseOrderType--><rect codeLine="13" fill="#FEFECE" filter="url(#f13cetqh7y6pp5)" height="112.0234" id="PurchaseOrderType" style="stroke:#A80036;stroke-width:1.5;" width="152" x="166" y="13.5"/><ellipse cx="181" cy="29.5" fill="#ADD1B2" rx="11" ry="11" style="stroke:#A80036;stroke-width:1.0;"/><path d="M183.3438,25.1719 C182.4063,24.7344 181.8125,24.5938 180.9375,24.5938 C178.3125,24.5938 176.3125,26.6719 176.3125,29.3906 L176.3125,30.5156 C176.3125,33.0938 178.4219,34.9844 181.3125,34.9844 C182.5313,34.9844 183.6875,34.6875 184.4375,34.1406 C185.0156,33.7344 185.3438,33.2813 185.3438,32.8906 C185.3438,32.4375 184.9531,32.0469 184.4844,32.0469 C184.2656,32.0469 184.0625,32.125 183.875,32.3125 C183.4219,32.7969 183.4219,32.7969 183.2344,32.8906 C182.8125,33.1563 182.125,33.2813 181.3594,33.2813 C179.3125,33.2813 178.0156,32.1875 178.0156,30.4844 L178.0156,29.3906 C178.0156,27.6094 179.2656,26.2969 181,26.2969 C181.5781,26.2969 182.1875,26.4531 182.6563,26.7031 C183.1406,26.9844 183.3125,27.2031 183.4063,27.6094 C183.4688,28.0156 183.5,28.1406 183.6406,28.2656 C183.7813,28.4063 184.0156,28.5156 184.2344,28.5156 C184.5,28.5156 184.7656,28.375 184.9375,28.1563 C185.0469,28 185.0781,27.8125 185.0781,27.3906 L185.0781,25.9688 C185.0781,25.5313 185.0625,25.4063 184.9688,25.25 C184.8125,24.9844 184.5313,24.8438 184.2344,24.8438 C183.9375,24.8438 183.7344,24.9375 183.5156,25.25 L183.3438,25.1719 Z " fill="#000000"/><text fill="#000000" font-family="sans-serif" font-size="12" lengthAdjust="spacing" textLength="120" x="195" y="33.6543">PurchaseOrderType</text><line style="stroke:#A80036;stroke-width:1.5;" x1="167" x2="317" y1="45.5" y2="45.5"/><ellipse cx="177" cy="56.5" rx="3" ry="3" style="stroke:#038048;stroke-width:1.0;fill:none;"/><text fill="#000000" font-family="sans-serif" font-size="11" lengthAdjust="spacing" textLength="110" x="186" y="59.7104">shipTo : USAddress</text><ellipse cx="177" cy="69.3047" rx="3" ry="3" style="stroke:#038048;stroke-width:1.0;fill:none;"/><text fill="#000000" font-family="sans-serif" font-size="11" lengthAdjust="spacing" textLength="103" x="186" y="72.5151">billTo : USAddress</text><ellipse cx="177" cy="82.1094" rx="3" ry="3" style="stroke:#038048;stroke-width:1.0;fill:none;"/><text fill="#000000" font-family="sans-serif" font-size="11" lengthAdjust="spacing" textLength="96" x="186" y="85.3198">comment : string</text><ellipse cx="177" cy="94.9141" rx="3" ry="3" style="stroke:#038048;stroke-width:1.0;fill:none;"/><text fill="#000000" font-family="sans-serif" font-size="11" lengthAdjust="spacing" textLength="75" x="186" y="98.1245">items : Items</text><ellipse cx="177" cy="107.7188" rx="3" ry="3" style="stroke:#038048;stroke-width:1.0;fill:none;"/><text fill="#000000" font-family="sans-serif" font-size="11" lengthAdjust="spacing" textLength="95" x="186" y="110.9292">orderDate : date</text><line style="stroke:#A80036;stroke-width:1.5;" x1="167" x2="317" y1="117.5234" y2="117.5234"/><!--MD5=[9b797913e8bdb3b84ea9513844d60725]
class USAddress--><rect codeLine="20" fill="#FEFECE" filter="url(#f13cetqh7y6pp5)" height="124.8281" id="USAddress" style="stroke:#A80036;stroke-width:1.5;" width="134" x="486" y="7"/><ellipse cx="516.3" cy="23" fill="#ADD1B2" rx="11" ry="11" style="stroke:#A80036;stroke-width:1.0;"/><path d="M518.6438,18.6719 C517.7063,18.2344 517.1125,18.0938 516.2375,18.0938 C513.6125,18.0938 511.6125,20.1719 511.6125,22.8906 L511.6125,24.0156 C511.6125,26.5938 513.7219,28.4844 516.6125,28.4844 C517.8313,28.4844 518.9875,28.1875 519.7375,27.6406 C520.3156,27.2344 520.6438,26.7813 520.6438,26.3906 C520.6438,25.9375 520.2531,25.5469 519.7844,25.5469 C519.5656,25.5469 519.3625,25.625 519.175,25.8125 C518.7219,26.2969 518.7219,26.2969 518.5344,26.3906 C518.1125,26.6563 517.425,26.7813 516.6594,26.7813 C514.6125,26.7813 513.3156,25.6875 513.3156,23.9844 L513.3156,22.8906 C513.3156,21.1094 514.5656,19.7969 516.3,19.7969 C516.8781,19.7969 517.4875,19.9531 517.9563,20.2031 C518.4406,20.4844 518.6125,20.7031 518.7063,21.1094 C518.7688,21.5156 518.8,21.6406 518.9406,21.7656 C519.0813,21.9063 519.3156,22.0156 519.5344,22.0156 C519.8,22.0156 520.0656,21.875 520.2375,21.6563 C520.3469,21.5 520.3781,21.3125 520.3781,20.8906 L520.3781,19.4688 C520.3781,19.0313 520.3625,18.9063 520.2688,18.75 C520.1125,18.4844 519.8313,18.3438 519.5344,18.3438 C519.2375,18.3438 519.0344,18.4375 518.8156,18.75 L518.6438,18.6719 Z " fill="#000000"/><text fill="#000000" font-family="sans-serif" font-size="12" lengthAdjust="spacing" textLength="68" x="533.7" y="27.1543">USAddress</text><line style="stroke:#A80036;stroke-width:1.5;" x1="487" x2="619" y1="39" y2="39"/><ellipse cx="497" cy="50" rx="3" ry="3" style="stroke:#038048;stroke-width:1.0;fill:none;"/><text fill="#000000" font-family="sans-serif" font-size="11" lengthAdjust="spacing" textLength="75" x="506" y="53.2104">name : string</text><ellipse cx="497" cy="62.8047" rx="3" ry="3" style="stroke:#038048;stroke-width:1.0;fill:none;"/><text fill="#000000" font-family="sans-serif" font-size="11" lengthAdjust="spacing" textLength="76" x="506" y="66.0151">street : string</text><ellipse cx="497" cy="75.6094" rx="3" ry="3" style="stroke:#038048;stroke-width:1.0;fill:none;"/><text fill="#000000" font-family="sans-serif" font-size="11" lengthAdjust="spacing" textLength="62" x="506" y="78.8198">city : string</text><ellipse cx="497" cy="88.4141" rx="3" ry="3" style="stroke:#038048;stroke-width:1.0;fill:none;"/><text fill="#000000" font-family="sans-serif" font-size="11" lengthAdjust="spacing" textLength="71" x="506" y="91.6245">state : string</text><ellipse cx="497" cy="101.2188" rx="3" ry="3" style="stroke:#038048;stroke-width:1.0;fill:none;"/><text fill="#000000" font-family="sans-serif" font-size="11" lengthAdjust="spacing" textLength="73" x="506" y="104.4292">zip : decimal</text><ellipse cx="497" cy="114.0234" rx="3" ry="3" style="stroke:#038048;stroke-width:1.0;fill:none;"/><text fill="#000000" font-family="sans-serif" font-size="11" lengthAdjust="spacing" textLength="108" x="506" y="117.2339">country : NMTOKEN</text><line style="stroke:#A80036;stroke-width:1.5;" x1="487" x2="619" y1="123.8281" y2="123.8281"/><!--MD5=[aa1236345582ea84fba1a2018df43fcb]
class comment--><rect codeLine="28" fill="#FEFECE" filter="url(#f13cetqh7y6pp5)" height="60.8047" id="comment" style="stroke:#A80036;stroke-width:1.5;" width="112" x="655" y="39"/><ellipse cx="680.8" cy="55" fill="#ADD1B2" rx="11" ry="11" style="stroke:#A80036;stroke-width:1.0;"/><path d="M683.1438,50.6719 C682.2063,50.2344 681.6125,50.0938 680.7375,50.0938 C678.1125,50.0938 676.1125,52.1719 676.1125,54.8906 L676.1125,56.0156 C676.1125,58.5938 678.2219,60.4844 681.1125,60.4844 C682.3313,60.4844 683.4875,60.1875 684.2375,59.6406 C684.8156,59.2344 685.1438,58.7813 685.1438,58.3906 C685.1438,57.9375 684.7531,57.5469 684.2844,57.5469 C684.0656,57.5469 683.8625,57.625 683.675,57.8125 C683.2219,58.2969 683.2219,58.2969 683.0344,58.3906 C682.6125,58.6563 681.925,58.7813 681.1594,58.7813 C679.1125,58.7813 677.8156,57.6875 677.8156,55.9844 L677.8156,54.8906 C677.8156,53.1094 679.0656,51.7969 680.8,51.7969 C681.3781,51.7969 681.9875,51.9531 682.4563,52.2031 C682.9406,52.4844 683.1125,52.7031 683.2063,53.1094 C683.2688,53.5156 683.3,53.6406 683.4406,53.7656 C683.5813,53.9063 683.8156,54.0156 684.0344,54.0156 C684.3,54.0156 684.5656,53.875 684.7375,53.6563 C684.8469,53.5 684.8781,53.3125 684.8781,52.8906 L684.8781,51.4688 C684.8781,51.0313 684.8625,50.9063 684.7688,50.75 C684.6125,50.4844 684.3313,50.3438 684.0344,50.3438 C683.7375,50.3438 683.5344,50.4375 683.3156,50.75 L683.1438,50.6719 Z " fill="#000000"/><text fill="#000000" font-family="sans-serif" font-size="12" lengthAdjust="spacing" textLength="56" x="697.2" y="59.1543">comment</text><line style="stroke:#A80036;stroke-width:1.5;" x1="656" x2="766" y1="71" y2="71"/><ellipse cx="666" cy="82" rx="3" ry="3" style="stroke:#038048;stroke-width:1.0;fill:none;"/><text fill="#000000" font-family="sans-serif" font-size="11" lengthAdjust="spacing" textLength="86" x="675" y="85.2104">@value : string</text><line style="stroke:#A80036;stroke-width:1.5;" x1="656" x2="766" y1="91.8047" y2="91.8047"/><!--MD5=[0596e4bdec064740a704528008eed5fb]
class purchaseOrder--><rect codeLine="31" fill="#FEFECE" filter="url(#f13cetqh7y6pp5)" height="48" id="purchaseOrder" style="stroke:#A80036;stroke-width:1.5;" width="124" x="7" y="45.5"/><ellipse cx="22" cy="61.5" fill="#ADD1B2" rx="11" ry="11" style="stroke:#A80036;stroke-width:1.0;"/><path d="M24.3438,57.1719 C23.4063,56.7344 22.8125,56.5938 21.9375,56.5938 C19.3125,56.5938 17.3125,58.6719 17.3125,61.3906 L17.3125,62.5156 C17.3125,65.0938 19.4219,66.9844 22.3125,66.9844 C23.5313,66.9844 24.6875,66.6875 25.4375,66.1406 C26.0156,65.7344 26.3438,65.2813 26.3438,64.8906 C26.3438,64.4375 25.9531,64.0469 25.4844,64.0469 C25.2656,64.0469 25.0625,64.125 24.875,64.3125 C24.4219,64.7969 24.4219,64.7969 24.2344,64.8906 C23.8125,65.1563 23.125,65.2813 22.3594,65.2813 C20.3125,65.2813 19.0156,64.1875 19.0156,62.4844 L19.0156,61.3906 C19.0156,59.6094 20.2656,58.2969 22,58.2969 C22.5781,58.2969 23.1875,58.4531 23.6563,58.7031 C24.1406,58.9844 24.3125,59.2031 24.4063,59.6094 C24.4688,60.0156 24.5,60.1406 24.6406,60.2656 C24.7813,60.4063 25.0156,60.5156 25.2344,60.5156 C25.5,60.5156 25.7656,60.375 25.9375,60.1563 C26.0469,60 26.0781,59.8125 26.0781,59.3906 L26.0781,57.9688 C26.0781,57.5313 26.0625,57.4063 25.9688,57.25 C25.8125,56.9844 25.5313,56.8438 25.2344,56.8438 C24.9375,56.8438 24.7344,56.9375 24.5156,57.25 L24.3438,57.1719 Z " fill="#000000"/><text fill="#000000" font-family="sans-serif" font-size="12" lengthAdjust="spacing" textLength="92" x="36" y="65.6543">purchaseOrder</text><line style="stroke:#A80036;stroke-width:1.5;" x1="8" x2="130" y1="77.5" y2="77.5"/><line style="stroke:#A80036;stroke-width:1.5;" x1="8" x2="130" y1="85.5" y2="85.5"/><!--MD5=[0894b6da392428c693ca18888b5b4dc2]
reverse link Items to item--><path codeLine="4" d="M402,115.62 C402,138.597 402,166.879 402,191.836 " fill="none" id="Items-backto-item" style="stroke:#A80036;stroke-width:1.0;"/><ellipse cx="402" cy="108.309" fill="#FFFFFF" rx="8" ry="8" style="stroke:#A80036;stroke-width:1.0;"/><line style="stroke:#A80036;stroke-width:1.0;" x1="402" x2="402" y1="116.309" y2="100.309"/><line style="stroke:#A80036;stroke-width:1.0;" x1="394" x2="410" y1="108.309" y2="108.309"/><!--MD5=[05ebd5581c27956f26685a24ac992295]
reverse link purchaseOrder to PurchaseOrderType--><path codeLine="33" d="M144.43,69.5 C151.555,69.5 158.68,69.5 165.806,69.5 " fill="none" id="purchaseOrder-backto-PurchaseOrderType" style="stroke:#A80036;stroke-width:1.0;"/><polygon fill="#A80036" points="131.172,69.5,137.172,73.5,143.172,69.5,137.172,65.5,131.172,69.5" style="stroke:#A80036;stroke-width:1.0;"/><!--MD5=[3ba70a5b5b8587aff08f31a4d777856f]
@startuml
class Items {
    +item : item[]
}
Items +- - item
class item {
    +productName : string
    +quantity : positiveInteger
    +USPrice : decimal
    +comment : string
    +shipDate : date
    +partNum : string
}
class PurchaseOrderType {
    +shipTo : USAddress
    +billTo : USAddress
    +comment : string
    +items : Items
    +orderDate : date
}
class USAddress {
    +name : string
    +street : string
    +city : string
    +state : string
    +zip : decimal
    +country : NMTOKEN
}
class comment {
    +@value : string
}
class purchaseOrder {
}
purchaseOrder *- PurchaseOrderType
@enduml

PlantUML version 1.2021.3beta7(Unknown compile time)
(GPL source distribution)
Java Runtime: Java(TM) SE Runtime Environment
JVM: Java HotSpot(TM) 64-Bit Server VM
Default Encoding: UTF-8
Language: en
Country: US
--></g></svg>