<?xml version="1.0" encoding="us-ascii" standalone="no"?><svg xmlns="http://www.w3.org/2000/svg" xmlns:xlink="http://www.w3.org/1999/xlink" contentStyleType="text/css" height="365px" preserveAspectRatio="none" style="width:872px;height:365px;background:#FFFFFF;" version="1.1" viewBox="0 0 872 365" width="872px" zoomAndPan="magnify"><defs/><g><!--class Items--><g id="elem_Items"><rect codeLine="1" fill="#F1F1F1" height="64.2969" id="Items" rx="2.5" ry="2.5" style="stroke:#181818;stroke-width:0.5;" width="117" x="394.5" y="48"/><ellipse cx="429.3" cy="64" fill="#ADD1B2" rx="11" ry="11" style="stroke:#181818;stroke-width:1.0;"/><path d="M431.6438,59.6719 C430.7063,59.2344 430.1125,59.0938 429.2375,59.0938 C426.6125,59.0938 424.6125,61.1719 424.6125,63.8906 L424.6125,65.0156 C424.6125,67.5938 426.7219,69.4844 429.6125,69.4844 C430.8313,69.4844 431.9875,69.1875 432.7375,68.6406 C433.3156,68.2344 433.6438,67.7813 433.6438,67.3906 C433.6438,66.9375 433.2531,66.5469 432.7844,66.5469 C432.5656,66.5469 432.3625,66.625 432.175,66.8125 C431.7219,67.2969 431.7219,67.2969 431.5344,67.3906 C431.1125,67.6563 430.425,67.7813 429.6594,67.7813 C427.6125,67.7813 426.3156,66.6875 426.3156,64.9844 L426.3156,63.8906 C426.3156,62.1094 427.5656,60.7969 429.3,60.7969 C429.8781,60.7969 430.4875,60.9531 430.9563,61.2031 C431.4406,61.4844 431.6125,61.7031 431.7063,62.1094 C431.7688,62.5156 431.8,62.6406 431.9406,62.7656 C432.0813,62.9063 432.3156,63.0156 432.5344,63.0156 C432.8,63.0156 433.0656,62.875 433.2375,62.6563 C433.3469,62.5 433.3781,62.3125 433.3781,61.8906 L433.3781,60.4688 C433.3781,60.0313 433.3625,59.9063 433.2688,59.75 C433.1125,59.4844 432.8313,59.3438 432.5344,59.3438 C432.2375,59.3438 432.0344,59.4375 431.8156,59.75 L431.6438,59.6719 Z " fill="#000000"/><text fill="#000000" font-family="sans-serif" font-size="14" lengthAdjust="spacing" textLength="41" x="447.7" y="68.8467">Items</text><line style="stroke:#181818;stroke-width:0.5;" x1="395.5" x2="510.5" y1="80" y2="80"/><ellipse cx="405.5" cy="93.6484" fill="none" rx="3" ry="3" style="stroke:#038048;stroke-width:1.0;"/><text fill="#000000" font-family="sans-serif" font-size="14" lengthAdjust="spacing" textLength="91" x="414.5" y="96.9951">item : item[]</text><line style="stroke:#181818;stroke-width:0.5;" x1="395.5" x2="510.5" y1="104.2969" y2="104.2969"/></g><!--class item--><g id="elem_item"><rect codeLine="5" fill="#F1F1F1" height="145.7813" id="item" rx="2.5" ry="2.5" style="stroke:#181818;stroke-width:0.5;" width="210" x="348" y="213"/><ellipse cx="431.75" cy="229" fill="#ADD1B2" rx="11" ry="11" style="stroke:#181818;stroke-width:1.0;"/><path d="M434.0938,224.6719 C433.1563,224.2344 432.5625,224.0938 431.6875,224.0938 C429.0625,224.0938 427.0625,226.1719 427.0625,228.8906 L427.0625,230.0156 C427.0625,232.5938 429.1719,234.4844 432.0625,234.4844 C433.2813,234.4844 434.4375,234.1875 435.1875,233.6406 C435.7656,233.2344 436.0938,232.7813 436.0938,232.3906 C436.0938,231.9375 435.7031,231.5469 435.2344,231.5469 C435.0156,231.5469 434.8125,231.625 434.625,231.8125 C434.1719,232.2969 434.1719,232.2969 433.9844,232.3906 C433.5625,232.6563 432.875,232.7813 432.1094,232.7813 C430.0625,232.7813 428.7656,231.6875 428.7656,229.9844 L428.7656,228.8906 C428.7656,227.1094 430.0156,225.7969 431.75,225.7969 C432.3281,225.7969 432.9375,225.9531 433.4063,226.2031 C433.8906,226.4844 434.0625,226.7031 434.1563,227.1094 C434.2188,227.5156 434.25,227.6406 434.3906,227.7656 C434.5313,227.9063 434.7656,228.0156 434.9844,228.0156 C435.25,228.0156 435.5156,227.875 435.6875,227.6563 C435.7969,227.5 435.8281,227.3125 435.8281,226.8906 L435.8281,225.4688 C435.8281,225.0313 435.8125,224.9063 435.7188,224.75 C435.5625,224.4844 435.2813,224.3438 434.9844,224.3438 C434.6875,224.3438 434.4844,224.4375 434.2656,224.75 L434.0938,224.6719 Z " fill="#000000"/><text fill="#000000" font-family="sans-serif" font-size="14" lengthAdjust="spacing" textLength="34" x="452.25" y="233.8467">item</text><line style="stroke:#181818;stroke-width:0.5;" x1="349" x2="557" y1="245" y2="245"/><ellipse cx="359" cy="258.6484" fill="none" rx="3" ry="3" style="stroke:#038048;stroke-width:1.0;"/><text fill="#000000" font-family="sans-serif" font-size="14" lengthAdjust="spacing" textLength="153" x="368" y="261.9951">productName : string</text><ellipse cx="359" cy="274.9453" fill="none" rx="3" ry="3" style="stroke:#038048;stroke-width:1.0;"/><text fill="#000000" font-family="sans-serif" font-size="14" lengthAdjust="spacing" textLength="184" x="368" y="278.292">quantity : positiveInteger</text><ellipse cx="359" cy="291.2422" fill="none" rx="3" ry="3" style="stroke:#038048;stroke-width:1.0;"/><text fill="#000000" font-family="sans-serif" font-size="14" lengthAdjust="spacing" textLength="123" x="368" y="294.5889">USPrice : decimal</text><ellipse cx="359" cy="307.5391" fill="none" rx="3" ry="3" style="stroke:#038048;stroke-width:1.0;"/><text fill="#000000" font-family="sans-serif" font-size="14" lengthAdjust="spacing" textLength="153" x="368" y="310.8857">comment : comment</text><ellipse cx="359" cy="323.8359" fill="none" rx="3" ry="3" style="stroke:#038048;stroke-width:1.0;"/><text fill="#000000" font-family="sans-serif" font-size="14" lengthAdjust="spacing" textLength="111" x="368" y="327.1826">shipDate : date</text><ellipse cx="359" cy="340.1328" fill="none" rx="3" ry="3" style="stroke:#038048;stroke-width:1.0;"/><text fill="#000000" font-family="sans-serif" font-size="14" lengthAdjust="spacing" textLength="118" x="368" y="343.4795">partNum : string</text><line style="stroke:#181818;stroke-width:0.5;" x1="349" x2="557" y1="350.7813" y2="350.7813"/></g><!--class PurchaseOrderType--><g id="elem_PurchaseOrderType"><rect codeLine="13" fill="#F1F1F1" height="129.4844" id="PurchaseOrderType" rx="2.5" ry="2.5" style="stroke:#181818;stroke-width:0.5;" width="179" x="180.5" y="15.5"/><ellipse cx="198.2" cy="31.5" fill="#ADD1B2" rx="11" ry="11" style="stroke:#181818;stroke-width:1.0;"/><path d="M200.5438,27.1719 C199.6063,26.7344 199.0125,26.5938 198.1375,26.5938 C195.5125,26.5938 193.5125,28.6719 193.5125,31.3906 L193.5125,32.5156 C193.5125,35.0938 195.6219,36.9844 198.5125,36.9844 C199.7313,36.9844 200.8875,36.6875 201.6375,36.1406 C202.2156,35.7344 202.5438,35.2813 202.5438,34.8906 C202.5438,34.4375 202.1531,34.0469 201.6844,34.0469 C201.4656,34.0469 201.2625,34.125 201.075,34.3125 C200.6219,34.7969 200.6219,34.7969 200.4344,34.8906 C200.0125,35.1563 199.325,35.2813 198.5594,35.2813 C196.5125,35.2813 195.2156,34.1875 195.2156,32.4844 L195.2156,31.3906 C195.2156,29.6094 196.4656,28.2969 198.2,28.2969 C198.7781,28.2969 199.3875,28.4531 199.8563,28.7031 C200.3406,28.9844 200.5125,29.2031 200.6063,29.6094 C200.6688,30.0156 200.7,30.1406 200.8406,30.2656 C200.9813,30.4063 201.2156,30.5156 201.4344,30.5156 C201.7,30.5156 201.9656,30.375 202.1375,30.1563 C202.2469,30 202.2781,29.8125 202.2781,29.3906 L202.2781,27.9688 C202.2781,27.5313 202.2625,27.4063 202.1688,27.25 C202.0125,26.9844 201.7313,26.8438 201.4344,26.8438 C201.1375,26.8438 200.9344,26.9375 200.7156,27.25 L200.5438,27.1719 Z " fill="#000000"/><text fill="#000000" font-family="sans-serif" font-size="14" lengthAdjust="spacing" textLength="141" x="212.8" y="36.3467">PurchaseOrderType</text><line style="stroke:#181818;stroke-width:0.5;" x1="181.5" x2="358.5" y1="47.5" y2="47.5"/><ellipse cx="191.5" cy="61.1484" fill="none" rx="3" ry="3" style="stroke:#038048;stroke-width:1.0;"/><text fill="#000000" font-family="sans-serif" font-size="14" lengthAdjust="spacing" textLength="136" x="200.5" y="64.4951">shipTo : USAddress</text><ellipse cx="191.5" cy="77.4453" fill="none" rx="3" ry="3" style="stroke:#038048;stroke-width:1.0;"/><text fill="#000000" font-family="sans-serif" font-size="14" lengthAdjust="spacing" textLength="128" x="200.5" y="80.792">billTo : USAddress</text><ellipse cx="191.5" cy="93.7422" fill="none" rx="3" ry="3" style="stroke:#038048;stroke-width:1.0;"/><text fill="#000000" font-family="sans-serif" font-size="14" lengthAdjust="spacing" textLength="153" x="200.5" y="97.0889">comment : comment</text><ellipse cx="191.5" cy="110.0391" fill="none" rx="3" ry="3" style="stroke:#038048;stroke-width:1.0;"/><text fill="#000000" font-family="sans-serif" font-size="14" lengthAdjust="spacing" textLength="95" x="200.5" y="113.3857">items : Items</text><ellipse cx="191.5" cy="126.3359" fill="none" rx="3" ry="3" style="stroke:#038048;stroke-width:1.0;"/><text fill="#000000" font-family="sans-serif" font-size="14" lengthAdjust="spacing" textLength="120" x="200.5" y="129.6826">orderDate : date</text><line style="stroke:#181818;stroke-width:0.5;" x1="181.5" x2="358.5" y1="136.9844" y2="136.9844"/></g><!--class USAddress--><g id="elem_USAddress"><rect codeLine="20" fill="#F1F1F1" height="145.7813" id="USAddress" rx="2.5" ry="2.5" style="stroke:#181818;stroke-width:0.5;" width="165" x="546.5" y="7"/><ellipse cx="587.6" cy="23" fill="#ADD1B2" rx="11" ry="11" style="stroke:#181818;stroke-width:1.0;"/><path d="M589.9438,18.6719 C589.0063,18.2344 588.4125,18.0938 587.5375,18.0938 C584.9125,18.0938 582.9125,20.1719 582.9125,22.8906 L582.9125,24.0156 C582.9125,26.5938 585.0219,28.4844 587.9125,28.4844 C589.1313,28.4844 590.2875,28.1875 591.0375,27.6406 C591.6156,27.2344 591.9438,26.7813 591.9438,26.3906 C591.9438,25.9375 591.5531,25.5469 591.0844,25.5469 C590.8656,25.5469 590.6625,25.625 590.475,25.8125 C590.0219,26.2969 590.0219,26.2969 589.8344,26.3906 C589.4125,26.6563 588.725,26.7813 587.9594,26.7813 C585.9125,26.7813 584.6156,25.6875 584.6156,23.9844 L584.6156,22.8906 C584.6156,21.1094 585.8656,19.7969 587.6,19.7969 C588.1781,19.7969 588.7875,19.9531 589.2563,20.2031 C589.7406,20.4844 589.9125,20.7031 590.0063,21.1094 C590.0688,21.5156 590.1,21.6406 590.2406,21.7656 C590.3813,21.9063 590.6156,22.0156 590.8344,22.0156 C591.1,22.0156 591.3656,21.875 591.5375,21.6563 C591.6469,21.5 591.6781,21.3125 591.6781,20.8906 L591.6781,19.4688 C591.6781,19.0313 591.6625,18.9063 591.5688,18.75 C591.4125,18.4844 591.1313,18.3438 590.8344,18.3438 C590.5375,18.3438 590.3344,18.4375 590.1156,18.75 L589.9438,18.6719 Z " fill="#000000"/><text fill="#000000" font-family="sans-serif" font-size="14" lengthAdjust="spacing" textLength="75" x="607.4" y="27.8467">USAddress</text><line style="stroke:#181818;stroke-width:0.5;" x1="547.5" x2="710.5" y1="39" y2="39"/><ellipse cx="557.5" cy="52.6484" fill="none" rx="3" ry="3" style="stroke:#038048;stroke-width:1.0;"/><text fill="#000000" font-family="sans-serif" font-size="14" lengthAdjust="spacing" textLength="95" x="566.5" y="55.9951">name : string</text><ellipse cx="557.5" cy="68.9453" fill="none" rx="3" ry="3" style="stroke:#038048;stroke-width:1.0;"/><text fill="#000000" font-family="sans-serif" font-size="14" lengthAdjust="spacing" textLength="100" x="566.5" y="72.292">street : string</text><ellipse cx="557.5" cy="85.2422" fill="none" rx="3" ry="3" style="stroke:#038048;stroke-width:1.0;"/><text fill="#000000" font-family="sans-serif" font-size="14" lengthAdjust="spacing" textLength="82" x="566.5" y="88.5889">city : string</text><ellipse cx="557.5" cy="101.5391" fill="none" rx="3" ry="3" style="stroke:#038048;stroke-width:1.0;"/><text fill="#000000" font-family="sans-serif" font-size="14" lengthAdjust="spacing" textLength="93" x="566.5" y="104.8857">state : string</text><ellipse cx="557.5" cy="117.8359" fill="none" rx="3" ry="3" style="stroke:#038048;stroke-width:1.0;"/><text fill="#000000" font-family="sans-serif" font-size="14" lengthAdjust="spacing" textLength="91" x="566.5" y="121.1826">zip : decimal</text><ellipse cx="557.5" cy="134.1328" fill="none" rx="3" ry="3" style="stroke:#038048;stroke-width:1.0;"/><text fill="#000000" font-family="sans-serif" font-size="14" lengthAdjust="spacing" textLength="139" x="566.5" y="137.4795">country : NMTOKEN</text><line style="stroke:#181818;stroke-width:0.5;" x1="547.5" x2="710.5" y1="144.7813" y2="144.7813"/></g><!--class comment--><g id="elem_comment"><rect codeLine="28" fill="#F1F1F1" height="64.2969" id="comment" rx="2.5" ry="2.5" style="stroke:#181818;stroke-width:0.5;" width="118" x="747" y="48"/><ellipse cx="769.2" cy="64" fill="#ADD1B2" rx="11" ry="11" style="stroke:#181818;stroke-width:1.0;"/><path d="M771.5438,59.6719 C770.6063,59.2344 770.0125,59.0938 769.1375,59.0938 C766.5125,59.0938 764.5125,61.1719 764.5125,63.8906 L764.5125,65.0156 C764.5125,67.5938 766.6219,69.4844 769.5125,69.4844 C770.7313,69.4844 771.8875,69.1875 772.6375,68.6406 C773.2156,68.2344 773.5438,67.7813 773.5438,67.3906 C773.5438,66.9375 773.1531,66.5469 772.6844,66.5469 C772.4656,66.5469 772.2625,66.625 772.075,66.8125 C771.6219,67.2969 771.6219,67.2969 771.4344,67.3906 C771.0125,67.6563 770.325,67.7813 769.5594,67.7813 C767.5125,67.7813 766.2156,66.6875 766.2156,64.9844 L766.2156,63.8906 C766.2156,62.1094 767.4656,60.7969 769.2,60.7969 C769.7781,60.7969 770.3875,60.9531 770.8563,61.2031 C771.3406,61.4844 771.5125,61.7031 771.6063,62.1094 C771.6688,62.5156 771.7,62.6406 771.8406,62.7656 C771.9813,62.9063 772.2156,63.0156 772.4344,63.0156 C772.7,63.0156 772.9656,62.875 773.1375,62.6563 C773.2469,62.5 773.2781,62.3125 773.2781,61.8906 L773.2781,60.4688 C773.2781,60.0313 773.2625,59.9063 773.1688,59.75 C773.0125,59.4844 772.7313,59.3438 772.4344,59.3438 C772.1375,59.3438 771.9344,59.4375 771.7156,59.75 L771.5438,59.6719 Z " fill="#000000"/><text fill="#000000" font-family="sans-serif" font-size="14" lengthAdjust="spacing" textLength="70" x="784.8" y="68.8467">comment</text><line style="stroke:#181818;stroke-width:0.5;" x1="748" x2="864" y1="80" y2="80"/><ellipse cx="758" cy="93.6484" fill="none" rx="3" ry="3" style="stroke:#038048;stroke-width:1.0;"/><text fill="#000000" font-family="sans-serif" font-size="14" lengthAdjust="spacing" textLength="92" x="767" y="96.9951">value : string</text><line style="stroke:#181818;stroke-width:0.5;" x1="748" x2="864" y1="104.2969" y2="104.2969"/></g><!--class purchaseOrder--><g id="elem_purchaseOrder"><rect codeLine="31" fill="#F1F1F1" height="48" id="purchaseOrder" rx="2.5" ry="2.5" style="stroke:#181818;stroke-width:0.5;" width="138" x="7" y="56"/><ellipse cx="22" cy="72" fill="#ADD1B2" rx="11" ry="11" style="stroke:#181818;stroke-width:1.0;"/><path d="M24.3438,67.6719 C23.4063,67.2344 22.8125,67.0938 21.9375,67.0938 C19.3125,67.0938 17.3125,69.1719 17.3125,71.8906 L17.3125,73.0156 C17.3125,75.5938 19.4219,77.4844 22.3125,77.4844 C23.5313,77.4844 24.6875,77.1875 25.4375,76.6406 C26.0156,76.2344 26.3438,75.7813 26.3438,75.3906 C26.3438,74.9375 25.9531,74.5469 25.4844,74.5469 C25.2656,74.5469 25.0625,74.625 24.875,74.8125 C24.4219,75.2969 24.4219,75.2969 24.2344,75.3906 C23.8125,75.6563 23.125,75.7813 22.3594,75.7813 C20.3125,75.7813 19.0156,74.6875 19.0156,72.9844 L19.0156,71.8906 C19.0156,70.1094 20.2656,68.7969 22,68.7969 C22.5781,68.7969 23.1875,68.9531 23.6563,69.2031 C24.1406,69.4844 24.3125,69.7031 24.4063,70.1094 C24.4688,70.5156 24.5,70.6406 24.6406,70.7656 C24.7813,70.9063 25.0156,71.0156 25.2344,71.0156 C25.5,71.0156 25.7656,70.875 25.9375,70.6563 C26.0469,70.5 26.0781,70.3125 26.0781,69.8906 L26.0781,68.4688 C26.0781,68.0313 26.0625,67.9063 25.9688,67.75 C25.8125,67.4844 25.5313,67.3438 25.2344,67.3438 C24.9375,67.3438 24.7344,67.4375 24.5156,67.75 L24.3438,67.6719 Z " fill="#000000"/><text fill="#000000" font-family="sans-serif" font-size="14" lengthAdjust="spacing" textLength="106" x="36" y="76.8467">purchaseOrder</text><line style="stroke:#181818;stroke-width:0.5;" x1="8" x2="144" y1="88" y2="88"/><line style="stroke:#181818;stroke-width:0.5;" x1="8" x2="144" y1="96" y2="96"/></g><!--reverse link Items to item--><g id="link_Items_item"><path codeLine="4" d="M453,128.428 C453,155.14 453,178.517 453,212.915 " fill="none" id="Items-backto-item" style="stroke:#181818;stroke-width:1.0;"/><ellipse cx="453" cy="120.428" fill="#FFFFFF" rx="8" ry="8" style="stroke:#181818;stroke-width:1.0;"/><line style="stroke:#181818;stroke-width:1.0;" x1="453" x2="453" y1="128.428" y2="112.428"/><line style="stroke:#181818;stroke-width:1.0;" x1="445" x2="461" y1="120.428" y2="120.428"/></g><!--reverse link purchaseOrder to PurchaseOrderType--><g id="link_purchaseOrder_PurchaseOrderType"><path codeLine="33" d="M157.34,80 C169.027,80 168.714,80 180.401,80 " fill="none" id="purchaseOrder-backto-PurchaseOrderType" style="stroke:#181818;stroke-width:1.0;"/><polygon fill="#181818" points="145.34,80,151.34,84,157.34,80,151.34,76,145.34,80" style="stroke:#181818;stroke-width:1.0;"/></g><!--SRC=[TP3BJiCm44Nt_WglgV83tI71eaAabPgk40jZZzgHuaVjSQM2yk_uaPIKW3UspyprN5_PYn3uXa07_iLuMYjC5xxcUNjxPmEhnLNJ5CHaKPIcKU2yLL5IApGaNI2FvbWhvoWC8LqJTZOWuGKsXk08ljOF-vr7cLKA96hHLoojrc0euV5KSJYXUn9KsjCs3XUUsgX_1W-ZmrtqyYG2RBq2trqTJ7RpCvrDWiF-KIaF8LJ-WNt_5__73PPOrZMxYcmUDNSuURczE7amowpI6O1-GLd3k- -h0-Ri4zqomsZ8Pt7xscrVdjkRcUa_evMBw2CiutFp-5BlmEx9GxDC-1i0]--></g></svg>